<svg width="175" height="210" viewBox="0 0 175 210" fill="none" xmlns="http://www.w3.org/2000/svg">
<g clip-path="url(#clip0_44_8)">
<path d="M104.828 44.4482C93.1768 36.4298 78.2582 33.3625 64.4124 36.1429C50.5666 38.9232 37.9826 47.5141 30.3201 59.4116C25.5276 66.8505 22.6167 75.6277 22.7696 84.488C22.9226 93.3482 26.2912 102.256 32.5749 108.489C43.0193 118.85 59.4076 120.351 73.908 118.082C89.0315 115.716 103.41 109.981 117.404 103.766C123.674 100.979 129.952 98.0573 135.453 93.9504C140.955 89.8435 145.694 84.4299 147.925 77.9195C151.877 66.3703 146.75 52.6245 136.721 45.6968C126.69 38.7694 112.736 38.624 104.828 44.4482Z" stroke="#6B90D8" stroke-width="3" stroke-miterlimit="10"/>
<path d="M46.7944 17.0879C46.5833 18.178 47.747 19.2337 48.8392 19.0571C49.9314 18.8806 50.7027 17.7072 50.6027 16.6012C50.5027 15.4952 49.6638 14.5389 48.6391 14.1104C47.6144 13.6819 46.4479 13.7245 45.3808 14.0207C42.5805 14.8016 40.4545 17.2651 39.4958 20.02C38.5371 22.7749 38.6027 25.7913 39.0396 28.6797C39.8546 34.065 41.9328 39.2558 45.0643 43.9577C42.5203 38.8452 38.5069 34.2903 33.2695 32.0494C28.032 29.8084 21.5147 30.2258 17.1494 33.8847C16.1649 34.7094 15.2866 35.7051 14.8067 36.9002C14.3267 38.0953 14.292 39.5113 14.9176 40.6373C15.5432 41.7632 16.8985 42.5019 18.1496 42.2101C19.4007 41.9183 20.3184 40.4744 19.8794 39.2639C19.4403 38.0534 17.597 37.597 16.7642 38.5768" stroke="#6B90D8" stroke-width="3" stroke-miterlimit="10"/>
<path d="M46.7944 17.0879C46.5833 18.178 47.747 19.2337 48.8392 19.0571C49.9314 18.8806 50.7027 17.7072 50.6027 16.6012C50.5027 15.4952 49.6638 14.5389 48.6391 14.1104C47.6144 13.6819 46.4479 13.7245 45.3808 14.0207C42.5805 14.8016 40.4545 17.2651 39.4958 20.02C38.5371 22.7749 38.6027 25.7913 39.0396 28.6797C39.8546 34.065 41.9328 39.2558 45.0643 43.9577C42.5203 38.8452 38.5069 34.2903 33.2695 32.0494C28.032 29.8084 21.5147 30.2258 17.1494 33.8847C16.1649 34.7094 15.2866 35.7051 14.8067 36.9002C14.3267 38.0953 14.292 39.5113 14.9176 40.6373C15.5432 41.7632 16.8985 42.5019 18.1496 42.2101C19.4007 41.9183 20.3184 40.4744 19.8794 39.2639C19.4403 38.0534 17.597 37.597 16.7642 38.5768" stroke="#6B90D8" stroke-width="3" stroke-miterlimit="10"/>
<path d="M17.4307 41.8357C18.8624 41.6578 19.897 40.4988 19.7415 39.247C19.586 37.9951 18.2993 37.1245 16.8675 37.3023C15.4358 37.4802 14.4012 38.6392 14.5567 39.891C14.7122 41.1429 15.9989 42.0135 17.4307 41.8357Z" fill="#6B90D8"/>
<path d="M48.749 19.0684C50.1808 18.8905 51.2154 17.7315 51.0599 16.4797C50.9044 15.2278 49.6176 14.3572 48.1859 14.535C46.7542 14.7129 45.7196 15.8719 45.8751 17.1237C46.0306 18.3756 47.3173 19.2462 48.749 19.0684Z" fill="#6B90D8"/>
<path d="M43.9719 72.8693C45.3574 72.6972 46.3406 71.43 46.1678 70.0391C45.995 68.6481 44.7317 67.6601 43.3462 67.8322C41.9606 68.0043 40.9775 69.2714 41.1503 70.6624C41.323 72.0533 42.5863 73.0414 43.9719 72.8693Z" fill="#6B90D8"/>
<path d="M84.7426 56.5522C86.1282 56.3801 87.1113 55.113 86.9385 53.722C86.7658 52.3311 85.5025 51.343 84.1169 51.5151C82.7314 51.6873 81.7482 52.9544 81.921 54.3453C82.0938 55.7363 83.3571 56.7243 84.7426 56.5522Z" fill="#6B90D8"/>
<path d="M73.2727 68.2453C66.7504 68.7042 59.8071 70.5203 54.0484 73.626C48.2896 76.7316 43.3373 81.5716 40.7863 87.6137C39.5612 90.521 38.898 93.7132 39.2337 96.8529C39.5693 99.9926 40.9603 103.069 43.3338 105.141C45.4711 107.007 48.2454 107.958 51.0014 108.598C60.0868 110.698 69.6117 109.801 78.7325 107.894C88.175 105.924 97.6219 102.759 105.092 96.6409C112.562 90.5232 117.775 81.0031 116.786 71.3704C116.378 67.4042 114.779 63.3338 111.538 61.029C109.071 59.2758 105.95 58.7326 102.931 58.5723C91.5084 57.9725 79.9157 62.4303 72.8566 68.6027L73.2727 68.2453Z" stroke="#6B90D8" stroke-width="3" stroke-miterlimit="10"/>
<path d="M40.0253 99.7246C40.9788 94.713 45.0105 90.8569 49.3137 88.1468C52.0796 86.4052 55.1874 84.9553 58.4521 85.0408C61.7167 85.1263 65.1091 87.1429 65.8984 90.3252C64.4629 87.7926 64.9322 84.4336 66.6897 82.1216C68.4507 79.8092 71.3143 78.4987 74.2019 78.2287C77.0894 77.9587 79.9997 78.6372 82.6929 79.728C85.2966 80.7821 87.8099 82.284 89.4775 84.5524C91.68 87.5454 92.1434 91.549 91.5394 95.218C90.9354 98.8871 89.3782 102.32 87.8348 105.7" stroke="#6B90D8" stroke-width="3" stroke-miterlimit="10"/>
<path d="M34.0697 110.953C28.1532 123.016 26.3026 137.212 29.801 150.199C33.2997 163.189 42.3284 174.759 54.4512 180.502C62.7989 184.457 72.2178 185.606 81.4444 185.48C93.716 185.312 105.953 182.977 117.42 178.607C126.145 175.283 134.671 170.585 140.389 163.185C147.794 153.597 149.523 140.275 146.264 128.585C143.004 116.895 135.17 106.817 125.57 99.4301" stroke="#6B90D8" stroke-width="3" stroke-miterlimit="10"/>
<path d="M66.6925 118.429C62.1729 130.69 64.1255 144.796 70.2697 156.332C76.4109 167.872 86.4104 177.003 97.5549 183.785" stroke="#6B90D8" stroke-width="3" stroke-miterlimit="10"/>
<path d="M107.931 131.498L119.133 128.951" stroke="#6B90D8" stroke-width="3" stroke-miterlimit="10"/>
<path d="M109.52 139.232C113.801 139.185 118.066 138.253 121.977 136.512" stroke="#6B90D8" stroke-width="3" stroke-miterlimit="10"/>
<path d="M133.693 106.301C139.423 103.404 145.219 100.461 150.057 96.2316C154.895 92.0025 158.757 86.2853 159.442 79.8783" stroke="#6B90D8" stroke-width="3" stroke-miterlimit="10"/>
<path d="M10.9512 96.1242C14.0198 105.979 21.5237 114.353 30.9606 118.462" stroke="#6B90D8" stroke-width="3" stroke-miterlimit="10"/>
<path d="M132.066 171.761C133.296 174.998 134.527 178.235 135.761 181.467" stroke="#6B90D8" stroke-width="3" stroke-miterlimit="10"/>
<path d="M66.9679 184.768L63.8063 196.969" stroke="#6B90D8" stroke-width="3" stroke-miterlimit="10"/>
<path d="M139.222 190.708C142.409 190.312 144.67 187.397 144.273 184.198C143.875 180.999 140.97 178.727 137.783 179.122C134.596 179.518 132.335 182.433 132.732 185.632C133.13 188.831 136.035 191.104 139.222 190.708Z" fill="#6B90D8"/>
<path d="M139.222 190.708C142.409 190.312 144.67 187.397 144.273 184.198C143.875 180.999 140.97 178.727 137.783 179.122C134.596 179.518 132.335 182.433 132.732 185.632C133.13 188.831 136.035 191.104 139.222 190.708Z" fill="#6B90D8"/>
<path d="M63.5374 204.32C66.7242 203.924 68.9854 201.01 68.588 197.811C68.1906 194.612 65.2851 192.339 62.0983 192.735C58.9115 193.131 56.6503 196.045 57.0477 199.244C57.4451 202.444 60.3506 204.716 63.5374 204.32Z" fill="#6B90D8"/>
</g>
<defs>
<clipPath id="clip0_44_8">
<rect width="152" height="192" fill="white" transform="translate(0 18.7372) rotate(-7.08093)"/>
</clipPath>
</defs>
</svg>
