<svg width="153" height="222" viewBox="0 0 153 222" fill="none" xmlns="http://www.w3.org/2000/svg">
<path d="M73.1929 176.761C74.5965 176.761 75.7343 175.602 75.7343 174.173C75.7343 172.744 74.5965 171.585 73.1929 171.585C71.7893 171.585 70.6514 172.744 70.6514 174.173C70.6514 175.602 71.7893 176.761 73.1929 176.761Z" fill="#E38A64"/>
<path d="M142.52 154.431C144.489 154.431 146.085 152.806 146.085 150.801C146.085 148.796 144.489 147.171 142.52 147.171C140.551 147.171 138.955 148.796 138.955 150.801C138.955 152.806 140.551 154.431 142.52 154.431Z" fill="#E38A64"/>
<path d="M11.0494 188.452C13.1941 188.452 14.9327 186.682 14.9327 184.498C14.9327 182.314 13.1941 180.543 11.0494 180.543C8.9047 180.543 7.16608 182.314 7.16608 184.498C7.16608 186.682 8.9047 188.452 11.0494 188.452Z" fill="#E38A64"/>
<path d="M75.0193 59.0448C76.1609 59.0448 77.0864 58.1023 77.0864 56.9398C77.0864 55.7772 76.1609 54.8348 75.0193 54.8348C73.8777 54.8348 72.9523 55.7772 72.9523 56.9398C72.9523 58.1023 73.8777 59.0448 75.0193 59.0448Z" fill="#E38A64"/>
<path d="M87.6181 56.9398C88.7597 56.9398 89.6852 55.9973 89.6852 54.8348C89.6852 53.6723 88.7597 52.7298 87.6181 52.7298C86.4765 52.7298 85.5511 53.6723 85.5511 54.8348C85.5511 55.9973 86.4765 56.9398 87.6181 56.9398Z" fill="#E38A64"/>
<path d="M54.3082 69.3039C53.5356 59.4312 53.112 48.368 59.3301 40.8971C63.1457 36.3145 68.8318 33.9749 74.4195 32.3047C85.9035 28.8746 98.9496 27.8049 109.183 34.244C117.522 39.4926 122.69 48.9788 125.516 58.7204C129.948 73.9797 128.993 91.8616 119.339 104.205C114.181 110.799 106.95 115.348 99.3393 118.381C91.7285 121.414 83.684 123.039 75.6869 124.651C63.5184 127.101 51.35 129.554 39.1849 132.004C30.4796 133.757 20.9678 135.397 13.1571 131.014C3.48265 125.586 -0.0855449 111.969 3.18106 101.003C6.44767 90.0396 15.1293 81.6404 24.7156 76.0467C34.1359 70.5496 44.8981 67.2472 54.3048 69.3039H54.3082Z" stroke="#E38A64" stroke-width="3" stroke-miterlimit="10"/>
<path d="M65.2737 9.99545C67.0392 12.7112 67.9371 16.0032 67.7982 19.2573C67.7474 20.4686 67.5136 21.7591 66.6766 22.6184C65.9751 23.3361 64.9653 23.6364 64.1521 24.223C62.3934 25.4963 61.8309 27.9912 62.2274 30.1514C62.6238 32.3116 63.8031 34.2302 64.9586 36.0868" stroke="#E38A64" stroke-width="3" stroke-miterlimit="10"/>
<path d="M79.7599 30.9416C79.848 28.8401 80.9155 26.8007 82.5793 25.5515C83.3857 24.9476 84.3515 24.4921 84.9072 23.6433C86.1 21.8247 84.7988 19.3815 83.2773 17.8391C81.3594 15.8963 78.9094 14.1605 78.313 11.4758C77.8047 9.17761 78.8857 6.73791 80.58 5.13675C82.2743 3.53559 84.5006 2.64529 86.7235 2" stroke="#E38A64" stroke-width="3" stroke-miterlimit="10"/>
<path d="M93.9582 28.9057C94.3242 25.4998 95.0934 22.1422 96.2489 18.926C96.3743 18.5775 96.5437 18.1876 96.8927 18.0737C97.3197 17.9357 97.7331 18.2877 98.0618 18.5948C102.386 22.6356 109.346 23.3983 114.412 20.3857" stroke="#E38A64" stroke-width="3" stroke-miterlimit="10"/>
<path d="M109.268 33.4262C111.67 32.3565 113.751 30.5483 115.171 28.3018C115.577 27.66 116.052 26.9008 116.801 26.8628C117.502 26.8283 118.041 27.4495 118.525 27.9671C121.108 30.7104 125.36 31.6629 128.834 30.2722" stroke="#E38A64" stroke-width="3" stroke-miterlimit="10"/>
<path d="M121.413 47.9402C125.093 47.2742 128.491 45.114 130.691 42.0359C135.482 44.2651 141.127 44.5135 146.088 42.7122" stroke="#E38A64" stroke-width="3" stroke-miterlimit="10"/>
<path d="M126.018 64.1622C127.651 65.339 129.782 65.7703 131.734 65.3182C133.686 64.8662 135.424 63.5377 136.397 61.7571C136.895 60.8426 137.271 59.7452 138.186 59.269C139.21 58.7376 140.436 59.2276 141.48 59.7142C144.95 61.3395 148.42 62.9648 151.893 64.5901" stroke="#E38A64" stroke-width="3" stroke-miterlimit="10"/>
<path d="M52.7393 101.22C38.5309 100.223 24.004 105.523 13.6484 115.479" stroke="#E38A64" stroke-width="3" stroke-miterlimit="10"/>
<path d="M22.7434 108.939C23.0552 111.873 23.3669 114.806 23.5634 117.611C27.7077 117.646 31.852 117.366 35.9555 116.776" stroke="#E38A64" stroke-width="3" stroke-miterlimit="10"/>
<path d="M33.4887 103.353C33.6514 108.146 34.6036 112.908 36.2877 117.384" stroke="#E38A64" stroke-width="3" stroke-miterlimit="10"/>
<path d="M28.5244 134.441C25.8982 150.563 31.7266 167.858 43.5189 178.942C55.3112 190.026 72.7083 194.56 88.2789 190.605C94.0564 189.139 99.712 186.475 103.728 181.996C109.569 175.481 111.152 166.191 112.043 157.416C113.598 142.119 113.815 126.683 112.694 111.348" stroke="#E38A64" stroke-width="3" stroke-miterlimit="10"/>
<path d="M30.012 157.509C24.3225 166.222 18.3755 174.763 12.1778 183.11" stroke="#E38A64" stroke-width="3" stroke-miterlimit="10"/>
<path d="M113.022 143.033C122.138 145.79 131.256 148.551 140.372 151.308" stroke="#E38A64" stroke-width="3" stroke-miterlimit="10"/>
<path d="M59.2963 188.452C58.4119 196.969 57.5274 205.485 56.643 213.998" stroke="#E38A64" stroke-width="3" stroke-miterlimit="10"/>
<path d="M104.507 181.916C107.485 187.797 111.433 193.166 116.137 197.731" stroke="#E38A64" stroke-width="3" stroke-miterlimit="10"/>
<path d="M56.643 221.59C59.2162 221.59 61.3023 219.582 61.3023 217.104C61.3023 214.626 59.2162 212.618 56.643 212.618C54.0697 212.618 51.9836 214.626 51.9836 217.104C51.9836 219.582 54.0697 221.59 56.643 221.59Z" fill="#E38A64"/>
<path d="M116.869 204.681C119.442 204.681 121.528 202.673 121.528 200.195C121.528 197.718 119.442 195.709 116.869 195.709C114.295 195.709 112.209 197.718 112.209 200.195C112.209 202.673 114.295 204.681 116.869 204.681Z" fill="#E38A64"/>
<path d="M36.5147 48.0402C43.2648 43.5646 48.9542 37.4394 52.9663 30.3274C54.2981 33.8023 56.3482 36.9874 58.9438 39.6169" stroke="#E38A64" stroke-width="3" stroke-miterlimit="10"/>
</svg>
