<svg width="535" height="371" viewBox="0 0 535 371" fill="none" xmlns="http://www.w3.org/2000/svg">
<g clip-path="url(#clip0_52_142)">
<path d="M347.302 316.426C327.804 323.934 308.755 332.603 290.277 342.359" stroke="#E9926D" stroke-width="4.38017" stroke-miterlimit="10"/>
<path d="M473.113 219.861C450.54 242.704 426.672 264.263 401.656 284.397C398.261 275.095 393.816 266.174 388.439 257.861" stroke="#E9926D" stroke-width="4.38017" stroke-miterlimit="10"/>
<path d="M460.737 306.743C440.73 326.238 420.73 345.733 400.723 365.227" stroke="#E9926D" stroke-width="4.38017" stroke-miterlimit="10"/>
<path d="M290.793 348.761C294.8 348.761 298.049 345.51 298.049 341.499C298.049 337.488 294.8 334.237 290.793 334.237C286.785 334.237 283.536 337.488 283.536 341.499C283.536 345.51 286.785 348.761 290.793 348.761Z" fill="#E9926D"/>
<path d="M400.723 370.118C404.73 370.118 407.979 366.866 407.979 362.855C407.979 358.845 404.73 355.593 400.723 355.593C396.715 355.593 393.466 358.845 393.466 362.855C393.466 366.866 396.715 370.118 400.723 370.118Z" fill="#E9926D"/>
<path d="M388.433 266.653C392.44 266.653 395.689 263.402 395.689 259.391C395.689 255.38 392.44 252.129 388.433 252.129C384.425 252.129 381.176 255.38 381.176 259.391C381.176 263.402 384.425 266.653 388.433 266.653Z" fill="#E9926D"/>
<path d="M361.974 266.653C365.981 266.653 369.23 263.402 369.23 259.391C369.23 255.38 365.981 252.129 361.974 252.129C357.966 252.129 354.718 255.38 354.718 259.391C354.718 263.402 357.966 266.653 361.974 266.653Z" fill="#E9926D"/>
<path d="M375.872 302.614C376.669 302.614 377.315 301.858 377.315 300.925C377.315 299.992 376.669 299.235 375.872 299.235C375.076 299.235 374.43 299.992 374.43 300.925C374.43 301.858 375.076 302.614 375.872 302.614Z" fill="#E9926D"/>
<path d="M337.166 64.3826C350.795 59.8729 362.453 49.6862 368.77 36.7839C370.059 44.7588 373.386 52.3896 378.352 58.7547" stroke="#E9926D" stroke-width="4.38017" stroke-miterlimit="10"/>
<path d="M389.894 4.43579C391.318 8.30034 392.748 12.2017 393.295 16.2813C393.841 20.3609 393.424 24.6985 391.349 28.2497C389.967 30.6152 387.892 32.5751 386.843 35.1064C384.817 40.0031 387.107 45.5327 389.538 50.239" stroke="#E9926D" stroke-width="4.38017" stroke-miterlimit="10"/>
<path d="M422.369 36.618C424.321 32.7104 426.279 28.0533 424.284 24.1703C421.742 19.2244 414.001 18.2414 412.448 12.9023C411.558 9.84261 413.283 6.5003 415.8 4.54652C418.317 2.59274 421.485 1.7203 424.56 0.890869" stroke="#E9926D" stroke-width="4.38017" stroke-miterlimit="10"/>
<path d="M440.681 37.1094C443.53 31.0637 445.261 24.4836 445.752 17.8174C449.012 23.8323 456.348 26.6954 463.187 26.5418C470.025 26.3882 476.533 23.7709 482.862 21.1904" stroke="#E9926D" stroke-width="4.38017" stroke-miterlimit="10"/>
<path d="M470.418 48.2978C475.059 44.9002 478.896 40.4029 481.518 35.2788C488.375 41.3736 498.731 43.2045 507.258 39.8315" stroke="#E9926D" stroke-width="4.38017" stroke-miterlimit="10"/>
<path d="M493.752 72.388C497.847 70.9626 501.223 67.608 502.672 63.5161C503.354 66.0044 505.766 67.7247 508.283 68.2838C510.8 68.8429 513.428 68.4374 515.951 67.909C518.474 67.3807 521.015 66.7417 523.588 66.8277" stroke="#E9926D" stroke-width="4.38017" stroke-miterlimit="10"/>
<path d="M506.362 102.733C509.333 98.6533 513.986 95.8394 518.971 95.0959C524.208 96.3739 529.555 97.1972 534.939 97.5474" stroke="#E9926D" stroke-width="4.38017" stroke-miterlimit="10"/>
<path d="M407.69 90.6291C409.514 90.6291 410.993 89.1767 410.993 87.3851C410.993 85.5935 409.514 84.1411 407.69 84.1411C405.866 84.1411 404.388 85.5935 404.388 87.3851C404.388 89.1767 405.866 90.6291 407.69 90.6291Z" fill="#E9926D"/>
<path d="M322.279 220.371C319.934 239.528 318.731 259.133 323.507 277.903C328.283 296.673 339.769 314.711 357.873 324.4C372.232 332.087 389.556 333.942 406.094 332.59C420.926 331.38 435.905 327.54 447.643 319.104C464.206 307.197 472.266 287.672 475.335 268.527C479.835 240.443 475.053 211.161 461.775 185.541" stroke="#E9926D" stroke-width="4.38017" stroke-miterlimit="10"/>
<path d="M296.005 180.239C316.484 164.111 342.538 155.221 368.598 155.473" stroke="#E9926D" stroke-width="4.38017" stroke-miterlimit="10"/>
<path d="M333.821 160.081L335.214 183.79C335.269 184.706 335.288 185.726 334.692 186.426C334.078 187.145 333.035 187.268 332.095 187.335C327.982 187.649 323.869 187.968 319.756 188.282C318.172 188.404 316.447 188.484 315.158 187.563C313.881 186.653 313.396 185.007 313.052 183.477C312.101 179.238 311.653 174.888 311.708 170.538" stroke="#E9926D" stroke-width="4.38017" stroke-miterlimit="10"/>
<path d="M472.37 95.6855C471.339 98.5609 470.308 101.436 469.276 104.318" stroke="#E9926D" stroke-width="2.19008" stroke-miterlimit="10"/>
<path d="M477.785 97.572C476.827 100.048 475.87 102.524 474.912 105" stroke="#E9926D" stroke-width="2.19008" stroke-miterlimit="10"/>
<path d="M322.046 268.631C318.431 280.718 314.809 292.806 311.194 304.893C327.435 288.647 344.65 273.484 362.702 259.526" stroke="#E9926D" stroke-width="4.38017" stroke-miterlimit="10"/>
<path d="M434.07 87.3852C435.894 87.3852 437.372 85.9328 437.372 84.1412C437.372 82.3496 435.894 80.8972 434.07 80.8972C432.245 80.8972 430.767 82.3496 430.767 84.1412C430.767 85.9328 432.245 87.3852 434.07 87.3852Z" fill="#E9926D"/>
<path d="M368.346 106.26C363.772 81.7575 376.554 56.1495 397.868 44.3962C419.183 32.6489 447.471 34.6826 468.865 48.1993C490.259 61.716 504.416 85.7634 507.123 110.462C508.609 124.009 506.779 137.962 500.524 149.734C491.254 167.171 473.463 178.144 455.66 186.831C418.679 204.882 378.291 216.427 336.816 220.814C322.991 222.276 308.221 222.78 295.606 216.218C276.802 206.443 268.078 182.291 272.799 162.305C277.52 142.318 293.334 126.719 311.72 117.786C330.106 108.852 350.973 105.762 368.34 106.26H368.346Z" stroke="#E9926D" stroke-width="4.38017" stroke-miterlimit="10"/>
</g>
<g clip-path="url(#clip1_52_142)">
<path d="M147.789 340.874C149.443 340.874 150.784 339.446 150.784 337.684C150.784 335.922 149.443 334.494 147.789 334.494C146.134 334.494 144.793 335.922 144.793 337.684C144.793 339.446 146.134 340.874 147.789 340.874Z" fill="#6B90D8" stroke="#6B90D8" stroke-width="5.27451" stroke-miterlimit="10"/>
<path d="M39.9429 340.874C41.5973 340.874 42.9386 339.446 42.9386 337.684C42.9386 335.922 41.5973 334.494 39.9429 334.494C38.2884 334.494 36.9471 335.922 36.9471 337.684C36.9471 339.446 38.2884 340.874 39.9429 340.874Z" fill="#6B90D8" stroke="#6B90D8" stroke-width="5.27451" stroke-miterlimit="10"/>
<path d="M141.797 312.166C144.336 320.774 146.343 329.674 147.789 338.747" stroke="#6B90D8" stroke-width="3.51634" stroke-miterlimit="10"/>
<path d="M45.9343 312.166C44.8192 319.392 43.1467 326.513 40.9414 333.431" stroke="#6B90D8" stroke-width="3.51634" stroke-miterlimit="10"/>
<path d="M113.957 249.662C122.401 251.765 131.525 250.687 139.32 246.66" stroke="#6B90D8" stroke-width="3.51634" stroke-miterlimit="10"/>
<path d="M113.157 263.701C123.286 267.704 135.393 265.452 143.622 258.026" stroke="#6B90D8" stroke-width="3.51634" stroke-miterlimit="10"/>
<path d="M63.682 219.757C52.6672 237.436 51.4708 259.993 58.6404 279.418C65.8101 298.843 80.7934 315.13 98.8911 326.147" stroke="#6B90D8" stroke-width="5.27451" stroke-miterlimit="10"/>
<path d="M30.962 93.8548C32.3491 93.8548 33.4737 92.7422 33.4737 91.3699C33.4737 89.9975 32.3491 88.885 30.962 88.885C29.5748 88.885 28.4503 89.9975 28.4503 91.3699C28.4503 92.7422 29.5748 93.8548 30.962 93.8548Z" fill="#6B90D8"/>
<path d="M82.3974 82.147C83.7846 82.147 84.9091 81.0345 84.9091 79.6621C84.9091 78.2898 83.7846 77.1772 82.3974 77.1772C81.0103 77.1772 79.8857 78.2898 79.8857 79.6621C79.8857 81.0345 81.0103 82.147 82.3974 82.147Z" fill="#6B90D8"/>
<path d="M160.77 222.854C174.662 233.968 186.846 247.466 196.71 262.66" stroke="#6B90D8" stroke-width="3.51634" stroke-miterlimit="10"/>
<path d="M107.874 125.404C92.2834 106.859 63.0566 102.412 41.7029 113.855C20.3536 125.303 7.96882 150.63 10.0695 174.763C11.0194 185.66 14.8599 196.673 22.7055 204.296C30.3547 211.732 40.9768 215.246 51.4299 217.369C82.2275 223.624 115.039 219.52 143.348 205.872C157.674 198.969 171.255 189.252 179.137 175.435C187.019 161.618 188.065 143.146 178.648 130.33C170.511 119.255 155.988 114.169 142.252 114.701C128.515 115.232 114.405 119.492 106.847 124.225L107.874 125.404Z" stroke="#6B90D8" stroke-width="5.27451" stroke-miterlimit="10"/>
<path d="M57.3985 109.349C56.0924 103.122 54.7863 96.7458 56.307 90.5481C57.8323 84.3504 62.7735 78.2591 70.5277 76.0981C72.569 75.5277 74.8066 75.2473 76.9256 75.6195C79.0445 75.9918 81.0128 77.094 81.748 78.6555" stroke="#6B90D8" stroke-width="1.75817" stroke-miterlimit="10"/>
<path d="M31.236 91.0171C30.4186 87.2027 31.5191 82.6826 33.4828 80.3524C35.4465 78.0222 38.0678 77.6887 40.3785 78.7667C42.6892 79.8448 44.726 82.1992 46.5252 84.8822C50.8818 91.3797 54.0877 100.062 55.6221 109.542" stroke="#6B90D8" stroke-width="1.75817" stroke-miterlimit="10"/>
<path d="M24.0308 205.86C7.58022 229.315 6.57063 264.945 21.662 289.53C30.3768 303.726 43.6369 313.974 58.0988 319.707C72.5608 325.439 88.181 326.839 103.469 325.541C117.245 324.373 131.209 320.894 142.747 312.348C158.69 300.541 168.559 279.29 168.756 257.813C168.952 236.336 161.58 217.826 146.79 204.247" stroke="#6B90D8" stroke-width="5.27451" stroke-miterlimit="10"/>
<path d="M29.4412 170.354C30.9071 163.166 35.9076 156.895 42.3512 154.154C48.7947 151.413 56.5078 152.293 62.2573 156.412" stroke="#6B90D8" stroke-width="3.51634" stroke-miterlimit="10"/>
<path d="M87.8948 153.115C89.8813 145.288 96.4573 138.998 104.015 137.698C111.573 136.398 119.693 140.159 123.917 146.917" stroke="#6B90D8" stroke-width="3.51634" stroke-miterlimit="10"/>
<path d="M54.1425 179.496C61.7094 179.815 69.354 176.77 74.8478 171.249C76.1219 169.968 77.3914 168.493 79.1039 168.077C80.7799 167.666 82.4969 168.363 84.1272 168.938C93.8634 172.38 104.81 171.829 114.194 167.42" stroke="#6B90D8" stroke-width="3.51634" stroke-miterlimit="10"/>
<path d="M60.166 179.506C61.0748 189.939 65.9611 200.26 74.1994 205.718C82.4377 211.176 94.0599 210.789 101.056 203.571C105.052 199.448 107.262 193.593 108.025 187.666C108.787 181.739 108.198 175.706 107.271 169.808" stroke="#6B90D8" stroke-width="3.51634" stroke-miterlimit="10"/>
<path d="M64.8697 196.223C64.856 192.351 67.7238 188.692 71.3178 187.981C74.9118 187.27 78.83 189.6 80.3096 193.042C82.3326 189.276 87.0363 187.401 90.8997 188.827C94.7677 190.248 97.357 194.807 96.7359 199.09C96.0875 203.552 92.5803 206.854 89.2146 209.629" stroke="#6B90D8" stroke-width="3.51634" stroke-miterlimit="10"/>
<path d="M25.6235 175.885L24.806 179.235" stroke="#6B90D8" stroke-width="1.75817" stroke-miterlimit="10"/>
<path d="M27.2584 176.252L26.4912 179.293" stroke="#6B90D8" stroke-width="1.75817" stroke-miterlimit="10"/>
<path d="M29.0988 176.01C28.8339 176.987 28.6375 177.983 28.5188 178.993" stroke="#6B90D8" stroke-width="1.75817" stroke-miterlimit="10"/>
<path d="M130.095 149.407L129.109 153.255" stroke="#6B90D8" stroke-width="1.75817" stroke-miterlimit="10"/>
<path d="M132.137 149.325C131.694 150.538 131.351 151.79 131.1 153.067" stroke="#6B90D8" stroke-width="1.75817" stroke-miterlimit="10"/>
<path d="M134.091 149.436C133.708 150.674 133.424 151.94 133.237 153.231" stroke="#6B90D8" stroke-width="1.75817" stroke-miterlimit="10"/>
<path d="M38.4194 232.036C24.0435 243.068 11.3345 256.532 0.927002 271.76" stroke="#6B90D8" stroke-width="3.51634" stroke-miterlimit="10"/>
</g>
<defs>
<clipPath id="clip0_52_142">
<rect width="265" height="370.124" fill="white" transform="translate(270)"/>
</clipPath>
<clipPath id="clip1_52_142">
<rect width="205.706" height="269" fill="white" transform="translate(0 74)"/>
</clipPath>
</defs>
</svg>
